<?xml version="1.0" standalone="no"?>
<!DOCTYPE svg PUBLIC "-//W3C//DTD SVG 20010904//EN"
 "http://www.w3.org/TR/2001/REC-SVG-20010904/DTD/svg10.dtd">
<svg version="1.0" xmlns="http://www.w3.org/2000/svg"
 width="512.000000pt" height="512.000000pt" viewBox="0 0 512.000000 512.000000"
 preserveAspectRatio="xMidYMid meet">
<metadata>
Created by potrace 1.16, written by Peter Selinger 2001-2019
</metadata>
<g transform="translate(0.000000,512.000000) scale(0.100000,-0.100000)"
fill="#000000" stroke="none">
<path d="M133 5053 c-113 -55 -133 -69 -133 -88 0 -13 4 -25 10 -27 5 -1 70
-2 144 0 l134 3 46 59 c25 32 46 69 46 82 0 14 15 -7 40 -59 21 -46 43 -83 49
-83 6 0 4 11 -4 26 -12 24 -10 31 21 83 19 31 34 59 34 64 0 4 -57 7 -127 6
l-128 -1 -132 -65z"/>
<path d="M765 5108 c-3 -8 1 -43 10 -79 8 -35 15 -90 15 -121 0 -31 5 -60 10
-63 11 -7 13 -77 4 -111 l-6 -21 -66 24 c-58 21 -64 22 -51 6 9 -10 19 -26 22
-36 6 -16 9 -16 30 -3 21 14 25 14 45 0 12 -8 22 -25 22 -37 0 -12 21 -96 46
-187 25 -91 47 -175 50 -188 2 -12 22 -61 43 -107 l39 -84 -56 25 c-32 14 -79
35 -107 46 -63 25 -95 54 -95 88 l0 26 -122 -17 c-68 -9 -167 -20 -220 -24
-54 -4 -98 -10 -98 -14 0 -9 388 -345 403 -349 13 -4 -35 43 -153 150 -41 37
-71 70 -68 73 8 9 112 -22 175 -52 45 -21 54 -30 64 -64 18 -59 21 -41 6 39
l-14 72 137 0 c93 0 141 -4 153 -12 9 -7 41 -71 72 -143 53 -124 75 -164 75
-137 0 18 -107 258 -164 368 l-52 100 55 -12 c31 -7 109 -18 174 -25 132 -14
124 -4 103 -114 -15 -75 -95 -308 -113 -326 -7 -7 -30 2 -77 30 l-66 41 -15
-29 c-14 -27 -13 -29 5 -24 22 6 100 -35 100 -53 0 -31 -69 -101 -136 -137
-73 -40 -87 -58 -100 -132 l-7 -40 -14 40 c-17 47 -65 257 -84 365 -11 60 -15
69 -19 45 -3 -16 -10 -30 -15 -30 -19 -1 -483 -168 -514 -185 -17 -9 -71 7
-71 21 0 15 52 32 60 19 3 -5 11 66 18 158 9 137 16 184 38 246 35 101 26 108
-12 9 l-29 -78 -98 4 -97 3 1 -243 0 -244 24 50 c13 28 26 58 29 67 5 16 8 16
53 -3 26 -11 110 -57 186 -102 l137 -82 -52 -17 c-29 -9 -125 -46 -213 -80
-134 -53 -161 -67 -163 -86 -4 -27 19 -29 105 -8 32 8 78 17 103 20 l45 6 -50
-47 c-28 -27 -68 -63 -89 -82 -24 -21 -50 -59 -68 -100 -15 -36 -33 -74 -38
-83 -13 -23 -13 -188 -1 -188 15 0 24 20 9 20 -15 1 31 29 48 30 10 0 74 -180
74 -207 0 -5 -32 -17 -70 -28 l-70 -19 0 -94 0 -93 35 -33 c26 -24 35 -42 35
-65 0 -18 5 -31 13 -31 9 0 8 -3 -2 -9 -7 -5 -10 -14 -6 -20 13 -23 -16 -72
-46 -78 l-29 -5 0 -141 c0 -77 2 -138 4 -136 3 2 25 90 51 194 25 105 50 194
55 199 6 6 53 -80 124 -224 l114 -233 7 44 c11 65 22 81 45 69 10 -5 25 -10
32 -10 7 1 -5 10 -27 22 -22 11 -41 22 -43 23 -5 4 18 47 36 67 11 14 19 15
35 7 14 -8 46 -8 111 0 50 6 107 13 126 15 19 2 60 16 90 30 l55 26 7 -38 c4
-20 11 -50 16 -67 l8 -30 18 27 c17 26 17 28 -8 66 -14 22 -30 43 -36 47 -15
9 13 58 46 79 18 12 36 16 58 12 17 -3 41 -8 54 -11 26 -5 272 -133 272 -142
0 -3 -35 -69 -79 -147 -43 -77 -97 -179 -120 -225 -24 -46 -46 -80 -50 -75 -5
5 -30 63 -56 129 -26 66 -49 121 -50 123 -2 2 -15 -9 -29 -23 -34 -33 -56 -29
-78 15 l-17 35 -1 -30 c-1 -57 -12 -61 -76 -28 -33 17 -81 33 -109 38 l-50 7
55 -59 c30 -33 72 -79 93 -104 l37 -44 -44 -3 c-45 -3 -46 -4 -88 -78 -26 -46
-47 -73 -55 -70 -14 6 -6 -17 38 -107 23 -46 24 -48 65 -46 55 3 74 -13 74
-63 0 -57 -14 -78 -55 -78 -18 0 -35 3 -37 8 -2 4 -18 20 -35 36 l-33 30 -44
-32 c-24 -18 -53 -32 -63 -32 -13 0 -14 -3 -5 -8 9 -6 7 -11 -10 -19 -13 -6
-90 -69 -172 -141 -82 -72 -153 -129 -158 -126 -4 3 -8 -2 -8 -11 0 -14 -2
-14 -13 -3 -9 8 -18 71 -26 179 l-12 165 68 70 c37 38 93 111 125 161 56 90
56 91 25 75 -18 -8 -44 -23 -59 -34 -25 -17 -64 -15 -52 3 3 5 -2 9 -10 9 -19
0 -30 -17 -14 -22 9 -3 7 -10 -6 -23 -20 -21 -50 -85 -60 -131 -5 -23 -12 -30
-29 -30 -20 1 -22 -5 -25 -51 -3 -47 -1 -52 15 -46 17 6 17 5 -1 -15 -18 -21
-19 -25 -3 -105 9 -45 19 -108 23 -141 7 -57 7 -58 -14 -47 -21 11 -22 10 -22
-28 0 -33 4 -40 25 -45 l25 -6 -22 -30 c-16 -22 -23 -47 -25 -92 -2 -48 -1
-58 7 -40 5 12 12 46 14 73 3 28 7 53 9 56 3 2 19 -3 36 -12 17 -8 31 -11 31
-6 0 33 99 6 267 -74 l121 -58 20 -61 c29 -86 54 -143 59 -131 2 6 -14 60 -36
120 -43 122 -82 286 -105 446 -9 59 -16 110 -16 115 0 5 42 9 94 9 l94 0 22
-43 c13 -24 37 -53 54 -64 17 -12 57 -43 89 -70 34 -30 57 -44 57 -35 0 22 47
30 78 14 50 -25 72 -42 72 -54 0 -7 5 -13 11 -13 5 0 7 -5 4 -10 -3 -6 3 -27
14 -48 32 -58 146 -434 135 -445 -3 -3 15 -36 40 -75 50 -77 71 -122 56 -122
-5 0 -50 -60 -100 -133 l-91 -132 61 -3 c34 -2 68 2 75 8 7 6 30 49 51 95 21
47 41 85 44 85 3 0 30 -41 59 -91 l53 -91 21 20 c12 11 40 25 62 32 25 7 41
18 42 28 1 10 15 59 32 109 17 51 33 115 37 142 l6 50 49 -81 c33 -55 47 -88
44 -102 -5 -19 -5 -19 5 -3 19 29 180 387 186 413 7 29 15 30 30 6 17 -27 222
-272 268 -319 22 -24 37 -43 34 -43 -4 0 -55 25 -113 56 l-106 56 -48 -40
c-26 -22 -94 -70 -149 -106 -56 -37 -102 -67 -102 -69 0 -1 20 -1 45 0 25 0
42 -3 39 -8 -3 -5 2 -9 11 -9 35 0 0 -20 -122 -70 -71 -29 -132 -56 -137 -61
-6 -5 41 -9 116 -9 l127 0 20 55 c12 31 21 62 21 70 0 15 21 19 180 35 101 9
184 35 173 54 -4 7 -2 8 5 1 8 -7 8 -24 0 -58 -7 -35 -7 -52 1 -60 6 -6 11
-30 11 -54 l0 -43 50 0 c36 0 50 4 50 14 0 31 -34 174 -52 220 -10 26 -16 56
-13 65 3 11 -14 40 -50 81 -61 73 -55 86 22 47 76 -39 209 -77 267 -77 57 0
110 16 190 55 64 32 82 19 41 -27 -16 -18 -7 -12 20 15 l50 47 -3 185 c-3 149
-1 185 10 185 39 0 210 -68 261 -103 l58 -41 -141 -71 c-133 -68 -191 -105
-162 -105 6 0 20 -17 31 -38 21 -41 21 -41 21 -77 0 -16 6 -25 15 -25 14 0
104 -130 144 -209 18 -34 18 -40 6 -59 -14 -18 -13 -20 5 -15 11 3 20 8 20 12
0 21 68 92 97 102 30 10 86 62 95 89 2 8 47 -6 133 -41 72 -28 141 -55 155
-59 23 -6 20 -10 -59 -88 l-82 -82 54 0 c51 0 55 2 67 29 6 16 22 39 35 51 21
20 26 21 84 9 53 -11 59 -15 47 -28 -8 -9 -17 -26 -21 -39 -6 -22 -5 -23 37
-20 42 3 43 4 43 38 l0 36 88 -4 c68 -3 87 -1 87 9 -1 36 -15 41 -96 34 -44
-4 -87 -11 -96 -16 -12 -7 -25 -2 -45 16 -25 22 -26 24 -8 25 35 1 61 22 145
118 44 50 87 92 94 92 8 0 17 29 26 86 7 47 14 84 15 82 4 -4 92 -207 136
-313 18 -43 34 -74 36 -68 3 9 -23 75 -162 401 -12 29 -25 54 -28 55 -5 2
-233 -275 -308 -373 l-26 -34 -108 137 c-59 75 -112 134 -116 131 -8 -5 -10 1
-9 21 1 3 -13 22 -30 43 -17 20 -26 38 -21 40 5 2 74 9 153 15 141 12 143 12
146 37 2 14 12 54 23 89 10 35 19 85 19 112 0 27 4 49 9 49 5 0 47 -41 95 -91
61 -64 86 -84 86 -71 0 18 4 19 41 11 68 -16 100 -37 186 -124 55 -56 94 -87
120 -95 21 -7 59 -23 85 -35 25 -13 50 -20 54 -17 5 4 3 0 -3 -8 -6 -8 -32
-67 -57 -130 -25 -63 -51 -123 -56 -133 -6 -9 -13 -51 -17 -92 l-6 -75 40 0
c39 0 42 3 84 66 l42 66 62 -66 61 -66 117 0 c97 0 117 3 117 15 0 19 16 19
24 0 4 -13 36 -15 196 -15 l190 0 10 28 c6 15 15 35 20 44 6 10 10 54 10 97
l0 80 -117 -56 c-198 -93 -327 -152 -330 -150 -2 3 5 102 25 334 l7 82 66 -29
c55 -23 67 -25 75 -13 9 15 162 62 201 63 l23 0 -26 58 c-15 31 -29 72 -33 91
l-6 33 -166 -84 c-92 -47 -177 -92 -190 -102 l-23 -16 31 0 31 0 -14 -57 c-7
-32 -23 -110 -34 -173 -31 -175 -22 -171 -132 -58 -90 93 -129 121 -113 81 23
-58 26 -85 10 -109 -16 -25 -68 -34 -80 -14 -4 6 -11 8 -16 5 -10 -7 -99 62
-99 77 0 5 21 58 46 118 40 95 48 108 60 95 8 -8 29 -17 47 -19 51 -8 187 -12
175 -5 -6 4 -4 18 7 40 39 76 75 111 75 72 0 -44 10 8 34 175 17 116 33 193
43 209 17 25 17 26 -4 12 -12 -7 -83 -116 -159 -241 -75 -126 -140 -231 -144
-233 -8 -5 -53 32 -320 264 l-131 114 102 38 c112 42 125 51 135 82 20 65 47
127 54 127 17 0 42 -62 38 -91 -3 -16 -4 -29 -3 -29 7 0 313 119 423 164 125
51 135 53 151 38 22 -22 21 -30 -11 -72 -14 -19 -36 -55 -48 -79 l-22 -44 99
9 c54 5 135 9 181 9 l82 0 0 28 c0 27 -13 36 -25 17 -15 -24 -24 -6 -30 58 -3
37 -8 92 -11 122 l-5 55 35 -40 35 -40 1 91 0 91 -140 -48 c-77 -27 -140 -45
-140 -41 0 4 26 86 57 183 l58 176 48 13 c26 6 47 15 47 20 0 4 16 7 35 6 34
-1 35 0 35 36 0 31 -3 36 -17 31 -10 -4 -20 -10 -23 -14 -3 -4 -18 -10 -32
-13 -29 -5 -150 -57 -262 -113 -37 -19 -70 -32 -72 -30 -2 2 -10 58 -17 123
l-12 119 -40 5 c-25 3 -41 11 -42 20 -3 17 189 403 203 407 5 1 26 -21 46 -50
l37 -54 -22 -23 -22 -24 23 19 c22 18 23 18 47 -5 14 -13 25 -29 25 -36 0 -6
7 -14 15 -18 19 -7 19 -10 -5 76 -30 109 -29 112 28 105 26 -3 68 -3 95 0 l47
6 0 88 c0 52 -4 89 -10 89 -5 0 -77 -27 -160 -60 -83 -33 -153 -60 -156 -60
-4 0 0 282 5 387 1 6 73 -30 161 -82 100 -59 160 -88 160 -80 0 8 -28 32 -62
54 l-61 39 39 24 c21 14 49 30 62 37 20 10 22 19 22 82 0 53 -3 70 -12 66
-114 -50 -291 -117 -306 -117 -20 0 -20 1 -2 83 10 45 27 129 39 187 29 141
27 137 54 114 l22 -19 -18 22 c-18 21 -18 24 13 118 17 54 29 100 26 102 -2 3
-14 -15 -27 -39 -12 -23 -36 -63 -54 -88 -46 -64 -99 -160 -91 -167 3 -4 22
-2 41 4 19 6 35 9 35 5 0 -3 -7 -28 -16 -57 -16 -48 -20 -53 -83 -83 -36 -18
-58 -30 -48 -27 21 5 21 10 -3 -59 -57 -165 -98 -216 -110 -136 -10 64 7 112
53 153 l42 38 -77 -35 c-42 -19 -94 -44 -115 -54 -38 -20 -40 -20 -93 -2 -30
10 -73 22 -95 26 l-40 7 66 -66 c44 -45 62 -70 55 -77 -7 -7 -4 -10 10 -10 11
0 24 -4 29 -9 6 -5 38 -20 72 -34 l61 -25 102 44 c103 44 130 52 130 35 0 -17
-12 -41 -19 -37 -3 2 -5 -35 -4 -82 2 -77 -15 -193 -30 -208 -5 -6 -258 134
-268 149 -4 5 -14 7 -24 5 -10 -2 35 -33 112 -77 70 -41 130 -76 132 -77 3 -3
-108 -251 -142 -318 -14 -26 -16 -27 -25 -10 -15 28 -57 192 -88 341 -20 99
-30 129 -38 119 -6 -7 -51 -30 -101 -50 -49 -21 -96 -44 -103 -51 -11 -10 7
-31 96 -114 219 -204 358 -446 448 -775 24 -88 42 -162 39 -164 -2 -2 -66 28
-141 67 l-137 72 6 -180 c4 -136 2 -179 -6 -174 -7 4 -103 76 -215 160 -111
84 -206 153 -212 153 -5 0 -16 24 -24 53 -25 86 -79 338 -73 343 4 5 380 -102
436 -123 22 -9 19 -13 -55 -66 -162 -115 -158 -121 10 -14 l109 70 29 -32 c27
-30 32 -32 73 -25 57 8 64 19 25 39 -35 18 -203 152 -285 227 -64 58 -50 61
-152 -35 -59 -57 -58 -57 -188 1 -72 33 -81 40 -75 58 7 17 31 24 166 48 237
42 225 37 283 111 28 35 51 67 51 70 0 6 -33 2 -155 -21 -96 -19 -274 -92
-330 -137 -39 -31 -40 -31 -22 -5 12 19 13 26 4 22 -16 -6 -67 151 -67 206 0
19 -10 85 -21 145 -11 61 -24 136 -29 169 -9 63 -15 75 -30 60 -5 -5 5 -77 26
-183 19 -96 34 -184 34 -195 0 -48 -26 -102 -156 -331 -75 -132 -150 -267
-166 -299 l-30 -60 -28 72 c-15 39 -31 84 -35 99 -7 27 -8 27 -20 -17 -38
-131 -80 -248 -97 -270 -36 -45 -149 -162 -153 -158 -4 4 -45 426 -45 468 l0
25 80 -3 80 -4 81 68 c45 38 87 68 93 66 6 -2 8 -1 4 3 -7 7 62 64 244 203 57
43 105 82 108 86 6 11 -37 24 -264 82 -99 25 -211 58 -249 74 l-68 30 31 -55
c17 -30 29 -59 25 -64 -3 -5 5 -17 17 -25 12 -9 18 -16 13 -16 -6 -1 1 -10 14
-20 13 -11 20 -20 16 -20 -5 0 0 -9 10 -20 18 -20 17 -23 -30 -113 -60 -114
-137 -235 -141 -222 -59 174 -209 714 -201 722 4 3 37 -14 74 -39 38 -24 82
-53 98 -63 l30 -18 -20 20 c-11 12 -56 43 -100 70 l-81 48 15 40 c8 22 16 42
19 45 2 3 37 -31 79 -75 60 -64 66 -69 32 -25 -23 30 -58 72 -77 92 l-35 37
49 57 c27 31 61 71 75 88 27 32 45 73 40 91 -1 5 1 7 5 3 7 -8 17 3 49 57 l17
30 -21 -25 c-23 -28 -26 -24 -10 16 5 16 14 68 18 116 6 62 14 94 26 108 30
33 1 23 -78 -29 l-75 -49 -7 -99 c-3 -54 -9 -106 -13 -116 -5 -12 -23 18 -67
110 -33 71 -80 169 -105 219 l-45 91 55 -13 c30 -7 100 -27 154 -44 55 -16
101 -28 104 -25 8 8 6 8 -136 54 -90 28 -143 51 -164 70 -55 49 -31 51 107 10
72 -21 140 -39 153 -39 17 0 22 -6 23 -27 2 -25 2 -25 6 -5 3 13 8 22 12 20
85 -33 195 -86 198 -94 2 -7 -16 -53 -41 -103 -25 -50 -46 -94 -46 -98 0 -3
10 3 23 15 12 12 49 28 82 37 55 14 303 55 334 55 13 0 10 45 -7 88 -5 15 -4
15 12 0 9 -10 23 -18 30 -18 7 0 30 -12 51 -26 l38 -25 85 92 86 92 36 -74
c20 -41 62 -116 94 -168 31 -51 56 -97 54 -101 -2 -4 -41 -40 -87 -79 -57 -48
-93 -71 -110 -71 -39 0 -242 19 -274 26 -27 6 -28 4 -18 -15 7 -12 10 -21 7
-21 -3 0 0 -14 6 -31 9 -26 14 -30 37 -24 16 3 21 2 13 -3 -10 -7 -8 -12 7
-26 10 -10 25 -31 31 -47 7 -16 19 -29 26 -29 18 0 18 -2 -6 45 -11 22 -20 45
-20 51 0 20 85 33 279 43 101 6 186 12 188 15 3 3 0 20 -6 38 l-11 33 24 -27
c41 -45 37 -18 -3 31 -22 25 -50 69 -64 96 -14 28 -61 113 -106 190 -91 159
-92 143 12 196 42 22 62 27 75 20 14 -7 35 4 97 50 44 33 85 65 90 72 6 6 2 5
-8 -2 -26 -20 -30 -8 -10 33 10 23 46 59 93 96 l77 59 -8 63 c-5 35 -11 89
-14 121 -6 50 -9 56 -22 46 -8 -7 -40 -63 -70 -123 -30 -61 -57 -113 -59 -115
-1 -2 -16 7 -32 20 -154 127 -239 192 -261 201 l-26 10 30 14 c17 7 71 30 120
51 50 20 93 42 97 47 4 6 8 7 8 3 0 -5 12 5 26 22 14 17 38 38 54 48 l28 16
-26 54 c-14 29 -29 53 -32 53 -3 0 -104 -74 -225 -164 -192 -144 -221 -162
-230 -148 -7 10 -39 69 -72 133 l-61 117 26 5 c15 3 78 40 140 81 62 42 121
76 130 76 9 0 52 -12 95 -26 58 -19 82 -23 90 -15 6 6 22 11 36 11 39 0 18 10
-42 20 -30 5 -78 19 -107 31 l-52 22 29 12 c15 7 38 26 51 43 14 20 28 29 37
26 9 -4 15 0 15 9 0 21 -22 27 -46 13 -12 -6 -79 -59 -150 -118 -71 -59 -148
-120 -171 -137 -50 -36 -42 -50 -78 144 -14 77 -32 159 -40 182 -10 31 -10 43
-2 47 7 3 3 5 -8 3 -15 -2 -21 -11 -23 -37 -2 -19 -8 -39 -13 -45 -13 -13 -33
20 -35 60 -1 17 -4 44 -7 60 -4 26 3 38 46 82 l50 52 19 -25 c11 -13 52 -45
91 -70 40 -26 77 -55 84 -64 9 -12 33 -19 85 -24 40 -4 101 -13 135 -20 34 -8
64 -11 67 -9 2 3 12 -9 20 -26 9 -17 35 -53 59 -80 23 -27 50 -61 61 -76 10
-15 22 -23 26 -18 11 11 -8 425 -20 437 -9 9 98 175 112 176 4 0 20 -24 34
-52 15 -29 56 -104 91 -167 l66 -113 -134 -136 c-74 -75 -116 -120 -94 -101
57 48 156 124 182 137 20 11 26 4 90 -92 l68 -103 -35 8 c-19 5 -89 8 -155 8
-115 0 -119 0 -100 -17 26 -23 68 -82 58 -82 -4 0 -53 11 -108 24 -55 14 -101
23 -103 22 -1 -2 19 -13 45 -24 27 -12 60 -31 74 -43 43 -34 101 -40 218 -23
87 14 105 14 113 3 6 -10 7 -7 3 9 -5 18 -2 22 15 22 18 0 21 4 16 23 -17 55
-48 218 -44 222 3 3 24 -5 48 -19 41 -23 44 -23 62 -6 10 9 60 39 111 65 51
26 102 57 115 68 l22 20 0 -64 c0 -73 -17 -200 -28 -211 -4 -4 -38 11 -75 33
-38 21 -73 37 -78 34 -4 -3 -18 -38 -30 -78 -11 -40 -28 -80 -37 -89 -15 -18
-7 -24 15 -10 6 4 20 42 31 85 11 43 23 81 26 84 3 4 14 -1 23 -9 17 -15 160
-98 169 -98 2 0 4 101 4 225 l0 225 -80 0 c-44 0 -80 3 -80 8 0 4 32 39 71 77
74 74 120 137 54 75 -20 -19 -49 -46 -64 -60 -15 -14 -78 -68 -141 -121 -63
-54 -124 -106 -134 -118 -19 -21 -19 -21 -104 141 -46 90 -97 184 -113 211
-16 26 -29 49 -29 52 0 3 31 20 69 40 38 19 72 38 74 42 3 5 1 18 -4 31 -8 21
-14 22 -111 22 -98 0 -107 -2 -178 -36 -123 -59 -123 -59 -116 -27 4 16 9 36
12 46 5 15 -2 17 -50 17 l-55 0 4 -32 c6 -44 23 -282 31 -436 l7 -124 -44 22
c-48 25 -322 174 -406 222 l-52 29 162 159 162 159 -71 1 c-47 0 -77 -5 -90
-15 -10 -8 -26 -15 -34 -15 -8 0 -20 -8 -27 -19 -9 -15 -8 -23 4 -41 l15 -22
-33 18 c-19 9 -60 35 -92 56 -32 22 -62 38 -67 36 -5 -2 33 -30 85 -63 52 -33
94 -62 94 -65 0 -3 -51 -38 -112 -78 -62 -40 -121 -79 -132 -87 -20 -14 -21
-13 -23 123 -1 75 -5 145 -8 155 -3 11 -15 17 -34 17 -24 0 -33 -7 -49 -37
-11 -21 -33 -57 -49 -81 l-29 -42 -10 44 c-8 36 -7 50 9 80 l18 36 -49 0 -49
0 -92 -217 c-51 -120 -105 -251 -121 -292 -30 -78 -59 -128 -117 -199 l-36
-43 -13 23 c-30 55 -34 93 -14 156 l19 61 -57 -28 c-123 -62 -529 -280 -582
-312 -51 -31 -55 -36 -46 -57 6 -12 7 -25 3 -29 -4 -4 -60 20 -125 53 l-117
60 48 -64 c62 -82 98 -153 98 -194 l0 -33 39 43 c21 23 45 42 53 42 7 0 38 16
68 36 l55 36 132 -6 c150 -6 203 4 278 50 26 16 55 33 64 38 9 5 37 36 63 70
169 219 216 272 258 288 34 14 261 96 329 119 29 10 57 16 62 13 18 -10 37
-60 54 -139 9 -44 21 -85 26 -91 5 -6 5 -15 0 -20 -4 -5 -16 -31 -26 -59 -10
-27 -31 -76 -47 -108 -16 -32 -25 -63 -21 -70 4 -7 -11 2 -32 19 -22 17 -55
41 -74 54 -29 20 -32 20 -23 4 16 -27 112 -127 140 -144 23 -15 19 -17 -99
-58 -67 -23 -124 -41 -125 -39 -2 2 -13 73 -25 158 -11 85 -21 163 -23 173 -3
24 -21 32 -32 15 -4 -7 -3 -9 3 -6 22 14 29 -300 8 -321 -8 -9 -115 23 -234
69 -68 27 -127 49 -129 49 -3 0 4 -10 15 -22 11 -13 26 -34 33 -48 12 -22 10
-27 -31 -63 l-43 -39 -13 34 c-11 31 -12 29 -7 -27 3 -33 13 -164 22 -290 l17
-231 -70 29 c-112 46 -395 187 -395 197 0 5 51 43 113 84 62 41 126 90 142
108 l30 33 -32 -29 -32 -28 -40 80 c-22 44 -45 83 -51 87 -5 3 -15 -6 -21 -22
-31 -82 -133 -303 -140 -303 -4 0 -10 4 -13 9 -3 5 -43 41 -88 81 l-83 73 105
-107 c58 -59 125 -121 150 -138 25 -17 54 -40 66 -52 l21 -22 -111 -51 c-61
-29 -118 -55 -127 -58 -13 -5 -17 4 -22 52 -7 79 -110 434 -122 422 -2 -3 19
-88 46 -189 35 -131 49 -200 47 -236 l-3 -51 -190 34 c-104 18 -253 49 -330
68 -77 19 -146 35 -154 35 -10 0 -11 -12 -6 -49 l7 -50 -39 11 c-21 6 -76 40
-123 77 -97 75 -139 95 -159 73 -10 -10 -11 -23 -2 -59 7 -25 11 -46 9 -47 -2
-1 -61 -16 -133 -34 -223 -55 -244 -47 -108 36 51 32 119 79 152 107 51 42 58
52 49 68 -13 25 -6 31 110 100 73 43 88 56 72 60 -44 11 -16 178 33 193 11 4
23 0 29 -7 5 -9 6 11 2 54 -5 48 -3 67 5 67 35 0 303 -87 415 -135 21 -9 41
-13 44 -10 5 5 -33 275 -44 313 -3 9 -12 4 -29 -15 -13 -15 -25 -22 -25 -15 0
7 -5 10 -10 7 -13 -8 -242 -71 -292 -80 -21 -4 -38 -4 -38 -1 0 4 27 68 61
144 33 75 63 152 66 169 3 18 9 30 14 27 5 -2 47 -59 94 -124 48 -66 88 -120
91 -120 7 0 0 12 -73 116 -35 51 -63 95 -63 99 0 4 8 13 17 20 18 13 19 10
-103 201 l-33 51 74 51 c53 37 86 69 115 112 22 34 40 63 40 66 0 3 -48 3
-107 2 l-108 -3 -35 -82 c-19 -46 -37 -83 -40 -83 -3 0 -32 38 -65 85 -33 47
-65 85 -73 85 -7 0 5 -24 30 -56 24 -30 42 -59 41 -64 -1 -5 20 -27 47 -50 28
-23 48 -46 44 -51 -3 -5 2 -6 10 -3 14 5 16 -11 16 -133 0 -131 -2 -142 -23
-174 -13 -19 -29 -33 -35 -32 -8 2 -12 -14 -12 -45 0 -27 -3 -83 -6 -125 -6
-72 -9 -77 -30 -77 -15 0 -38 18 -67 51 l-45 52 -22 -44 c-13 -24 -28 -47 -34
-51 -6 -4 -89 -8 -183 -8 -158 0 -173 2 -173 18 0 9 -23 98 -50 196 -47 172
-48 180 -33 210 24 47 131 222 185 303 26 40 48 74 48 76 0 2 -63 5 -140 6
-111 2 -141 -1 -145 -11z m2755 -332 c18 -18 11 -27 -17 -24 -20 2 -34 14 -50
43 -29 51 -29 63 2 71 16 4 25 13 25 26 0 12 6 39 13 62 12 40 12 37 15 -64 1
-58 7 -109 12 -114z m169 -618 c41 -51 46 -81 17 -100 -8 -6 -7 -8 2 -8 6 0
11 -3 10 -7 -3 -13 59 -128 86 -160 32 -39 32 -40 -2 -35 -23 3 -52 -12 -138
-68 -60 -40 -110 -73 -112 -75 -2 -2 1 -13 8 -24 22 -42 0 -19 -26 27 -87 152
-179 301 -202 324 -14 15 -24 29 -21 31 2 2 72 28 156 58 130 45 149 55 132
64 -24 14 -15 25 22 25 21 0 37 -12 68 -52z m-644 -129 c28 -16 62 -39 77 -51
19 -15 48 -23 111 -28 47 -5 98 -14 113 -22 18 -8 52 -52 97 -126 38 -62 67
-115 64 -118 -3 -3 -28 7 -56 23 -47 26 -55 36 -54 71 1 6 -1 12 -2 12 -5 0
-393 -208 -444 -238 l-44 -25 7 104 c3 57 8 167 11 244 8 190 10 198 43 190
15 -4 50 -20 77 -36z m1042 -210 c26 -25 56 -58 66 -73 15 -23 69 -62 151
-111 16 -9 13 -21 -29 -120 -53 -124 -71 -149 -87 -124 -10 14 -18 14 -87 -6
-42 -13 -77 -19 -79 -14 -6 15 38 88 58 94 34 11 23 23 -52 61 -57 29 -76 34
-90 25 -9 -6 -19 -7 -21 -3 -2 4 -15 65 -28 136 -12 71 -25 124 -27 118 -2 -6
6 -82 17 -169 31 -240 36 -313 22 -313 -36 0 -152 75 -255 165 l-72 63 -107
-5 c-89 -5 -107 -9 -107 -22 0 -25 43 -40 92 -31 53 10 83 -1 167 -64 35 -25
96 -62 137 -83 41 -20 73 -38 71 -40 -5 -4 -329 -123 -337 -123 -10 0 -31 220
-24 246 4 15 -1 26 -17 38 -29 20 -34 15 -21 -22 11 -32 6 -45 -22 -55 -14 -6
-17 -3 -12 8 3 8 1 15 -4 15 -4 0 -16 23 -25 51 -15 44 -16 65 -7 151 6 55 13
103 17 106 3 3 45 -14 93 -38 48 -24 95 -45 105 -46 25 -2 33 -12 19 -26 -7
-7 -12 -17 -12 -22 0 -6 60 49 133 122 73 72 135 132 139 132 4 0 22 -21 39
-47 18 -27 75 -106 128 -177 53 -71 95 -133 94 -137 -1 -4 4 -9 11 -12 10 -4
8 16 -10 81 -20 71 -80 262 -102 321 -8 21 18 4 75 -50z m-3276 -318 l21 -63
27 41 c14 22 31 41 37 41 5 0 23 -14 39 -30 26 -27 107 -82 128 -86 4 -1 11
-2 15 -3 12 -1 28 -60 47 -169 9 -51 20 -104 26 -119 5 -14 7 -28 5 -30 -8 -9
-245 119 -286 155 l-42 35 4 68 3 68 -115 -112 c-223 -218 -281 -269 -296
-263 -38 15 -6 -14 69 -61 74 -47 82 -51 85 -33 2 11 13 22 25 25 85 19 213
35 289 35 49 0 97 4 106 9 9 4 46 12 81 15 55 6 63 5 57 -8 -47 -116 9 -11 85
160 l71 161 160 -120 159 -119 -118 -48 c-141 -57 -383 -167 -401 -183 -10 -8
-16 -7 -22 3 -12 19 -40 5 -199 -95 -93 -58 -127 -74 -145 -69 -22 5 -23 9
-15 37 11 39 12 84 1 91 -4 2 -97 -81 -206 -185 -110 -105 -226 -214 -260
-241 l-61 -51 65 7 c36 3 111 9 167 13 l102 6 23 66 c14 43 23 59 26 46 7 -37
19 -36 52 5 18 22 36 40 39 38 4 -2 45 -48 91 -103 46 -55 88 -103 94 -107 19
-13 31 -9 14 4 -8 7 -26 29 -39 48 -13 19 -63 86 -112 149 -85 111 -87 114
-70 133 26 29 103 21 347 -36 109 -26 201 -45 203 -43 2 3 -37 15 -86 27 -89
22 -91 23 -85 49 13 56 54 165 64 171 6 4 60 10 119 14 84 5 130 14 210 41 90
30 131 35 131 17 0 -25 -48 -146 -60 -150 -8 -3 60 -20 151 -37 l166 -30 -210
-159 c-198 -150 -211 -158 -224 -140 -8 10 -67 103 -131 206 -64 103 -118 185
-120 183 -6 -6 80 -152 175 -297 76 -116 86 -128 113 -128 33 0 35 -3 20 -29
-8 -16 -3 -20 35 -31 91 -26 107 -50 201 -309 46 -128 84 -240 84 -247 0 -11
39 -31 43 -22 1 1 24 49 51 105 28 56 53 100 58 97 19 -12 158 -325 158 -355
0 -12 -70 26 -140 76 -54 38 -70 48 -70 41 0 -2 45 -35 100 -72 55 -37 100
-71 100 -75 0 -5 -7 -12 -16 -17 -13 -8 -1 -19 65 -60 56 -34 77 -52 66 -56
-16 -6 -16 -8 0 -286 l5 -84 -27 26 c-16 14 -119 94 -231 178 l-202 152 62 70
c68 75 102 118 95 118 -2 0 -53 -53 -113 -117 -60 -65 -101 -112 -91 -104 16
13 20 13 28 0 5 -8 9 -30 9 -51 0 -77 103 -487 137 -549 6 -10 -508 254 -560
288 -38 25 -54 30 -70 23 -82 -34 -211 -80 -215 -75 -12 11 149 467 183 519
10 14 26 23 41 24 14 0 23 -2 21 -4 -2 -2 15 -41 37 -87 38 -76 47 -86 126
-144 47 -34 88 -62 91 -62 3 -1 14 6 25 14 18 13 18 14 -6 8 -23 -5 -21 -2 16
38 66 70 224 270 244 309 25 51 33 90 18 90 -7 0 -42 -23 -78 -51 -36 -28
-136 -105 -222 -170 -146 -110 -157 -117 -164 -96 -4 12 -42 93 -85 180 -44
87 -79 160 -79 162 0 3 111 6 248 7 156 1 220 4 172 8 -85 7 -111 16 -104 35
5 12 55 37 104 51 23 6 19 10 -38 35 -35 16 -76 38 -92 49 -15 11 -33 20 -40
20 -6 0 -43 -20 -81 -45 l-69 -45 0 50 c0 28 3 50 8 50 4 0 12 10 17 23 11 23
14 23 55 13 l25 -7 -25 18 c-13 10 -36 28 -50 40 -24 21 -24 22 -5 29 94 32
153 59 149 66 -3 4 -11 8 -17 8 -7 0 -28 5 -47 10 -35 10 -36 10 -54 100 -10
50 -22 93 -27 96 -5 3 -5 -10 -1 -28 10 -45 9 -144 -1 -155 -9 -8 -210 92
-228 114 -7 7 12 58 60 158 39 81 64 145 56 142 -7 -3 -30 -9 -49 -13 -46 -8
-47 -21 -1 -16 l35 4 -71 -128 c-39 -71 -72 -130 -74 -132 -7 -7 -104 41 -99
49 7 12 -2 11 -24 -1 -9 -5 -75 -30 -146 -56 -71 -25 -168 -63 -214 -85 -47
-22 -87 -38 -88 -36 -2 2 10 36 26 76 17 40 30 74 30 75 0 0 -24 2 -53 4 -76
4 -288 31 -301 39 -6 4 0 10 14 13 17 4 26 14 28 30 3 20 2 22 -11 12 -19 -16
-23 -10 -36 62 -16 89 -15 99 10 86 11 -6 24 -21 28 -32 5 -13 12 24 20 106
l12 126 -25 23 c-23 20 -96 139 -96 155 0 4 23 31 50 61 42 44 53 51 65 41 8
-7 16 -20 17 -29 1 -9 4 23 7 72 l6 87 53 -36 c50 -33 52 -34 36 -9 -16 24
-16 29 0 76 17 54 11 79 -23 107 -14 11 -14 11 2 6 13 -5 28 5 55 37 42 49 99
135 108 162 4 13 14 17 32 15 28 -3 31 -15 17 -53 -6 -14 -5 -17 3 -10 6 6 29
53 52 105 23 55 55 110 75 130 56 58 95 107 96 121 0 8 14 -42 30 -111 16 -69
39 -154 50 -189z m552 137 c34 -29 73 -60 87 -70 l25 -16 -60 -27 c-33 -14
-104 -49 -157 -76 -54 -28 -98 -48 -98 -45 0 3 26 58 58 123 32 65 61 129 64
141 4 12 9 22 12 22 4 0 35 -24 69 -52z m1960 -138 c24 -58 64 -152 88 -210
23 -58 49 -116 58 -129 8 -13 11 -22 6 -20 -52 24 -321 161 -327 167 -5 5 14
73 41 153 68 199 61 184 76 162 7 -10 33 -65 58 -123z m-1653 83 c74 -30 185
-60 379 -103 151 -33 276 -58 279 -56 2 3 -8 8 -22 12 -17 4 -26 12 -24 21 2
8 56 43 120 78 l117 63 4 -67 3 -66 2 73 c1 39 6 72 11 72 5 0 33 -26 62 -57
29 -32 47 -50 39 -40 -21 28 -6 31 66 13 77 -19 130 -44 118 -55 -5 -4 -26
-20 -47 -35 l-39 -28 -31 23 c-18 12 -26 16 -20 7 11 -13 3 -20 -60 -48 -39
-18 -73 -34 -75 -36 -6 -4 28 -63 40 -70 7 -4 10 -3 5 1 -7 9 40 65 55 65 12
0 9 -95 -5 -167 -12 -60 -14 -62 -83 -116 l-71 -55 -54 152 c-29 83 -63 175
-74 203 l-21 53 -77 -93 c-42 -50 -106 -126 -143 -167 -36 -41 -105 -124 -152
-183 -78 -97 -88 -106 -94 -85 -6 19 -7 18 -5 -7 1 -19 12 -39 30 -53 15 -13
24 -29 20 -35 -4 -7 0 -8 13 -3 148 55 264 102 264 108 0 14 86 152 97 155 6
2 26 -16 43 -41 l33 -45 18 22 c14 17 20 19 30 10 8 -8 18 -9 31 -2 22 12 34
-8 25 -42 -5 -19 -4 -19 26 4 49 36 58 40 51 23 -5 -14 47 -102 69 -117 5 -4
39 -9 75 -13 42 -4 90 -18 131 -38 35 -17 97 -43 137 -57 l72 -26 -45 -53
c-25 -28 -51 -52 -58 -52 -20 0 -122 116 -136 154 -7 20 -18 37 -25 40 -15 6
-89 -45 -230 -159 -101 -81 -137 -101 -133 -72 1 6 0 19 -4 27 -23 60 -35 287
-17 321 7 12 7 19 1 19 -5 0 -12 -8 -15 -18 -11 -33 -49 -61 -236 -173 -176
-105 -185 -109 -241 -109 -72 0 -96 -7 -75 -24 24 -19 124 -448 105 -454 -5
-2 -7 -8 -3 -13 3 -5 -6 -9 -20 -9 -14 0 -37 -5 -51 -12 -28 -12 -29 -17 -70
-198 -14 -63 -28 -126 -31 -140 -5 -21 -10 -14 -35 50 -39 99 -149 419 -149
431 0 6 5 7 10 4 19 -12 323 -116 326 -112 2 2 -67 30 -153 62 -170 63 -218
84 -192 85 9 0 24 10 32 23 9 12 28 36 42 52 47 52 81 108 101 165 13 38 32
67 61 93 55 49 106 114 101 128 -2 6 -16 -7 -31 -30 -15 -22 -31 -41 -35 -41
-12 0 -116 239 -108 248 4 4 21 -9 38 -28 18 -22 27 -27 23 -15 -34 95 -38
171 -10 195 22 18 50 -30 70 -122 10 -46 20 -77 22 -71 4 12 -44 259 -54 276
-3 4 -29 -6 -59 -23 l-54 -31 -11 28 c-61 155 -149 459 -130 451 4 -2 54 -22
111 -45z m1516 -40 c-47 -152 -66 -218 -66 -228 0 -15 -360 74 -363 90 -4 19
155 87 281 119 154 41 155 41 148 19z m-1622 -66 c27 -73 116 -332 116 -337 0
-3 -9 -11 -20 -18 -18 -11 -34 -2 -158 90 -76 57 -149 110 -162 119 -14 9 -23
19 -20 21 3 2 36 24 73 48 46 29 74 55 87 81 32 61 61 60 84 -4z m1237 -170
c-6 -6 -5 -18 2 -34 8 -19 7 -27 -4 -38 -13 -13 -18 -13 -37 5 -26 25 -29 72
-6 95 15 15 18 15 35 -1 12 -11 16 -21 10 -27z m-1611 -2 c40 -21 44 -44 21
-111 -35 -99 -57 -89 -68 33 -5 58 -1 93 12 93 3 0 19 -7 35 -15z m-228 -206
c19 -38 23 -56 15 -61 -16 -10 -217 -10 -217 0 0 4 6 16 14 27 46 68 77 139
72 163 -6 24 0 21 41 -24 27 -27 60 -75 75 -105z m1931 -12 c36 -75 63 -136
59 -133 -4 2 -93 16 -197 31 -105 14 -198 29 -208 31 -14 5 -9 12 28 40 55 43
249 174 251 171 1 -1 32 -64 67 -140z m-1218 -94 c45 -92 114 -239 125 -268
l8 -21 -112 17 c-135 20 -176 29 -176 37 -1 16 105 312 111 312 4 0 23 -35 44
-77z m596 -309 c-23 -59 -41 -109 -41 -111 0 -2 -9 -3 -20 -3 -21 0 -27 14
-11 24 5 4 12 25 16 48 4 23 16 58 26 78 21 40 58 84 66 77 2 -3 -14 -53 -36
-113z m519 -67 c7 -70 11 -130 8 -132 -3 -3 -65 24 -138 60 l-132 66 118 89
c138 103 124 112 144 -83z m-765 -42 c72 -20 159 -44 195 -55 36 -10 95 -21
132 -25 l66 -6 -40 -86 c-21 -47 -67 -154 -100 -237 -33 -83 -63 -154 -67
-158 -3 -4 -46 73 -95 170 -102 203 -147 285 -152 279 -3 -2 29 -72 71 -156
41 -83 75 -154 75 -157 0 -7 38 -94 51 -117 9 -17 8 -17 -18 -3 -15 8 -57 34
-93 58 l-65 44 -17 90 c-10 49 -18 109 -18 134 0 25 -9 65 -20 89 -11 24 -20
57 -20 73 0 16 -8 42 -18 56 -34 50 -36 55 -16 49 11 -3 78 -22 149 -42z m496
-73 c35 -37 84 -92 109 -121 l46 -54 108 46 c119 52 142 57 131 30 -14 -33 5
-260 29 -352 7 -28 10 -49 7 -47 -3 2 -39 24 -78 49 -40 24 -71 46 -69 48 3 2
-7 4 -20 4 -13 0 -24 -5 -24 -11 0 -7 -20 -28 -45 -49 -31 -25 -43 -41 -37
-48 9 -12 31 -183 33 -260 l1 -42 9 50 c5 28 7 70 4 95 -10 88 21 3 45 -120
12 -63 30 -139 41 -169 10 -30 17 -56 16 -58 -2 -2 -20 21 -40 50 -20 29 -49
65 -65 80 l-29 27 -130 -54 c-72 -29 -140 -59 -153 -66 -20 -11 -21 -10 -15
12 4 12 17 41 28 63 12 22 20 46 18 54 -1 8 2 10 10 5 7 -4 10 -3 6 4 -4 5 7
52 23 103 17 52 35 111 39 131 l9 38 -37 -1 c-32 -1 -33 -2 -9 -8 26 -6 26 -7
-49 -85 l-75 -78 -132 1 -132 2 7 -73 c4 -40 8 -89 7 -108 l0 -35 -8 30 c-4
17 -9 59 -10 95 -2 36 -5 55 -7 43 -2 -13 -8 -23 -12 -23 -13 0 -48 44 -56 70
-4 13 -30 51 -57 83 l-49 60 88 42 c78 37 93 41 130 33 24 -4 50 -5 58 -2 8 4
15 1 15 -5 0 -6 -5 -11 -12 -11 -6 0 -8 -3 -5 -7 4 -3 -3 -18 -15 -31 -23 -25
84 60 215 172 38 32 82 80 97 105 16 25 36 54 44 64 15 16 15 17 -8 11 -16 -4
-34 0 -48 10 -12 9 -30 16 -40 16 -15 0 -18 9 -18 64 0 35 7 80 15 99 9 21 12
48 9 66 -10 50 16 39 87 -37z m335 -39 c-3 -3 -12 -3 -20 0 -13 5 -14 10 -2
39 8 18 15 36 15 41 4 29 5 26 8 -22 2 -29 2 -56 -1 -58z m-71 -21 c0 -19 -59
-42 -76 -31 -11 8 -9 13 10 30 26 22 66 22 66 1z m1935 -152 c12 -8 9 -10 -13
-10 -16 0 -26 4 -22 10 8 12 16 12 35 0z m-4352 -51 c23 -8 34 -20 40 -42 5
-18 5 -33 1 -35 -4 -2 -6 -9 -3 -16 6 -16 -33 -66 -51 -66 -16 0 -60 132 -52
155 7 18 23 19 65 4z m3108 -249 c37 -27 35 -37 -23 -84 -80 -66 -88 -61 -88
50 l0 91 45 -21 c25 -12 54 -28 66 -36z m-3133 -5 c-3 -9 -8 -14 -10 -11 -3 3
-2 9 2 15 9 16 15 13 8 -4z m3601 -229 c-3 -9 -10 -14 -14 -11 -5 3 -40 -3
-79 -12 -49 -12 -71 -23 -71 -33 0 -8 4 -52 10 -96 5 -45 10 -114 11 -152 1
-39 5 -75 8 -80 4 -7 26 -5 61 4 89 23 118 19 169 -24 25 -21 61 -48 79 -61
44 -31 42 -51 -5 -52 l-38 -2 36 -6 37 -6 -121 -100 c-66 -55 -123 -100 -125
-99 -3 0 -49 45 -103 100 l-98 99 28 -83 c16 -46 41 -101 55 -122 14 -22 26
-43 26 -46 0 -4 8 -16 17 -26 16 -18 15 -21 -33 -69 l-51 -50 -22 68 c-37 115
-103 294 -108 290 -2 -2 10 -41 27 -87 19 -51 26 -80 18 -77 -128 50 -273 109
-275 111 -1 1 20 76 46 166 46 157 50 165 84 187 19 12 41 31 49 41 24 34 51
43 73 24 13 -11 12 -8 -4 10 l-24 27 -41 -21 c-38 -19 -40 -19 -25 -2 9 11 42
62 73 114 32 52 73 121 92 152 20 32 38 76 41 99 l6 42 99 -101 c67 -69 96
-105 92 -116z m-1173 164 c14 -8 19 -7 19 1 0 17 260 4 272 -13 10 -16 -59
-80 -154 -144 -75 -49 -78 -50 -78 -30 0 8 -4 16 -9 18 -5 2 -30 42 -56 91
-37 69 -43 87 -30 87 9 0 25 -5 36 -10z m1159 -189 c0 -4 -25 -73 -55 -152
l-56 -144 5 70 c9 115 55 235 91 235 8 0 15 -4 15 -9z m-872 -46 c8 -72 -33
-266 -51 -244 -2 2 -17 40 -32 84 -15 44 -30 82 -32 85 -11 11 12 -76 73 -272
4 -13 0 -18 -14 -18 -28 0 -153 39 -179 56 l-22 14 24 51 c20 44 23 62 18 119
-7 84 2 138 24 142 9 2 55 3 103 3 79 0 86 -2 88 -20z m-2095 -350 c-102 -99
-190 -181 -194 -183 -5 -2 -9 118 -9 266 l0 270 194 -87 194 -86 -185 -180z
m1377 236 c-7 -43 -8 -67 -1 -69 5 -2 29 -17 53 -34 24 -17 37 -24 29 -15 -30
37 -3 22 74 -39 44 -35 80 -72 81 -81 1 -10 11 -37 22 -59 l21 -42 -56 -21
c-31 -12 -57 -20 -59 -18 -2 2 13 29 32 61 20 31 35 59 32 61 -2 2 -79 -44
-171 -102 -93 -57 -170 -103 -172 -101 -1 1 19 82 46 178 27 96 46 182 43 191
-2 9 -13 24 -24 34 -18 16 -22 17 -37 3 -13 -11 -104 -48 -118 -48 -1 0 46 48
104 108 119 120 123 120 101 -7z m1066 -298 c-35 -109 -66 -209 -70 -222 -12
-35 9 -18 35 29 l23 40 34 -32 c18 -18 68 -75 110 -126 l76 -94 -25 -19 c-13
-10 -89 -55 -169 -100 -80 -45 -164 -93 -187 -107 -40 -22 -43 -22 -43 -5 0
15 19 64 57 151 4 10 -1 10 -22 2 -14 -5 -44 -10 -66 -10 -24 0 -46 -7 -56
-18 -17 -17 -22 -12 -106 113 -49 71 -95 137 -103 145 -13 13 -14 11 -4 -15 6
-16 15 -34 19 -40 4 -5 14 -26 21 -45 14 -36 59 -139 67 -152 4 -7 -14 -2
-147 41 -36 11 -73 21 -82 21 -15 0 -13 11 13 88 17 48 33 117 36 155 3 37 7
67 9 67 1 0 44 -16 95 -35 50 -20 94 -33 97 -30 3 3 0 5 -6 5 -17 0 -15 22 8
71 11 24 20 56 20 72 0 36 19 35 55 -3 16 -17 35 -28 43 -25 10 4 12 -12 8
-83 -4 -65 -3 -77 4 -47 5 22 9 65 10 95 l0 55 99 88 c81 73 198 167 207 167
1 0 -26 -89 -60 -197z m-548 66 c103 -39 188 -72 189 -73 1 -1 -50 -26 -115
-56 -64 -29 -129 -62 -143 -72 l-27 -18 -51 135 c-49 130 -57 155 -46 155 3 0
90 -32 193 -71z m-1076 -47 c37 -31 86 -79 110 -107 24 -27 55 -60 70 -73 14
-12 43 -45 63 -73 l36 -50 -120 90 c-173 131 -231 187 -238 234 -3 20 -2 37 3
37 5 0 39 -26 76 -58z m-9 -90 c61 -55 347 -269 318 -238 l-25 26 45 -4 c24
-3 46 -5 49 -5 5 -1 4 -63 0 -68 -2 -2 -3 -8 -4 -15 0 -6 -7 -13 -15 -16 -8
-3 -11 0 -7 7 9 14 -40 14 -139 0 l-77 -12 39 -21 c30 -18 37 -28 35 -47 -3
-24 -78 -109 -97 -109 -6 0 -16 33 -22 73 -9 57 -109 360 -148 450 -11 26 1
21 48 -21z m985 -102 c7 -11 19 -20 27 -20 8 0 15 -7 15 -15 0 -8 -6 -15 -14
-15 -19 0 -169 -161 -211 -225 -18 -27 -67 -110 -110 -182 -42 -73 -81 -133
-85 -133 -5 0 -87 26 -182 58 -95 33 -203 67 -240 77 -38 10 -68 21 -68 25 0
10 237 189 264 200 19 7 25 19 30 61 10 75 16 80 95 73 36 -3 93 -1 126 6 33
6 125 15 204 20 79 5 146 12 149 15 3 3 -5 16 -17 29 -13 14 -20 29 -16 35 9
16 19 13 33 -9z m-33 -31 c-10 -15 -65 -11 -65 5 0 8 8 16 18 19 22 5 54 -11
47 -24z m2220 -19 c41 -16 27 -48 -25 -56 -26 -5 -32 -3 -27 9 3 9 -1 18 -9
21 -23 9 -16 31 11 34 13 1 36 -3 50 -8z m-3637 -96 c-5 -19 -6 -39 -3 -44 5
-8 -88 15 -109 28 -12 7 95 61 110 55 9 -3 9 -14 2 -39z m-159 -30 c47 -14
122 -43 166 -64 78 -37 184 -70 228 -70 57 -1 44 -18 -40 -53 -49 -19 -155
-65 -236 -101 l-148 -65 7 109 c5 80 4 110 -5 111 -6 1 -16 2 -22 3 -12 1
-107 142 -108 160 -1 11 49 1 158 -30z m579 -246 c64 0 73 -2 67 -16 -4 -10
-30 -108 -58 -220 l-51 -203 -23 38 c-45 72 -80 148 -87 188 -21 116 -38 175
-52 175 -23 0 -7 19 29 35 20 9 46 12 67 8 19 -3 68 -5 108 -5z m1417 -45 c-8
-32 -21 -79 -29 -105 -8 -27 -12 -48 -11 -48 2 0 15 19 29 43 l26 42 0 -111 0
-111 -52 5 c-43 3 -80 20 -191 82 l-138 78 183 91 c100 50 186 91 189 91 4 0
1 -26 -6 -57z m151 -192 c27 -36 78 -95 114 -133 67 -71 84 -93 78 -107 -2 -5
-67 16 -144 47 l-142 55 10 34 c5 19 11 66 13 106 2 40 4 74 4 77 1 5 7 -1 67
-79z m-1776 44 c13 -14 21 -25 18 -25 -2 0 -15 11 -28 25 -13 14 -21 25 -18
25 2 0 15 -11 28 -25z m-127 -59 c87 -3 162 -8 167 -11 5 -3 -12 -43 -36 -89
-25 -47 -63 -127 -85 -178 -22 -51 -44 -97 -48 -101 -10 -10 -34 31 -126 208
-38 72 -74 139 -82 150 -20 29 -16 34 20 30 17 -2 103 -7 190 -9z m1574 -63
l93 -38 0 -62 c0 -60 -24 -137 -41 -131 -4 2 -36 50 -71 108 -35 58 -72 117
-82 133 -25 37 -12 36 101 -10z"/>
<path d="M481 3274 c0 -11 3 -14 6 -6 3 7 2 16 -1 19 -3 4 -6 -2 -5 -13z"/>
<path d="M1108 2803 c7 -3 16 -2 19 1 4 3 -2 6 -13 5 -11 0 -14 -3 -6 -6z"/>
<path d="M1148 2793 c6 -2 18 -2 25 0 6 3 1 5 -13 5 -14 0 -19 -2 -12 -5z"/>
<path d="M1213 2783 c9 -2 23 -2 30 0 6 3 -1 5 -18 5 -16 0 -22 -2 -12 -5z"/>
<path d="M1278 2773 c6 -2 18 -2 25 0 6 3 1 5 -13 5 -14 0 -19 -2 -12 -5z"/>
<path d="M1343 2763 c9 -2 23 -2 30 0 6 3 -1 5 -18 5 -16 0 -22 -2 -12 -5z"/>
<path d="M1438 2753 c7 -3 16 -2 19 1 4 3 -2 6 -13 5 -11 0 -14 -3 -6 -6z"/>
<path d="M1038 2523 c7 -3 16 -2 19 1 4 3 -2 6 -13 5 -11 0 -14 -3 -6 -6z"/>
<path d="M998 2513 c7 -3 16 -2 19 1 4 3 -2 6 -13 5 -11 0 -14 -3 -6 -6z"/>
<path d="M958 2503 c7 -3 16 -2 19 1 4 3 -2 6 -13 5 -11 0 -14 -3 -6 -6z"/>
<path d="M889 2493 c-11 -3 -15 -11 -12 -24 5 -19 6 -19 22 -1 9 11 23 21 31
25 18 7 -16 7 -41 0z"/>
<path d="M1480 2054 c0 -14 35 -116 50 -144 25 -47 17 -10 -15 70 -19 47 -35
80 -35 74z"/>
<path d="M1618 1663 c7 -3 16 -2 19 1 4 3 -2 6 -13 5 -11 0 -14 -3 -6 -6z"/>
<path d="M1538 1653 c7 -3 16 -2 19 1 4 3 -2 6 -13 5 -11 0 -14 -3 -6 -6z"/>
<path d="M1468 1643 c7 -3 16 -2 19 1 4 3 -2 6 -13 5 -11 0 -14 -3 -6 -6z"/>
<path d="M1398 1633 c6 -2 18 -2 25 0 6 3 1 5 -13 5 -14 0 -19 -2 -12 -5z"/>
<path d="M1328 1623 c6 -2 18 -2 25 0 6 3 1 5 -13 5 -14 0 -19 -2 -12 -5z"/>
<path d="M1268 1613 c6 -2 18 -2 25 0 6 3 1 5 -13 5 -14 0 -19 -2 -12 -5z"/>
<path d="M1609 1323 c-13 -16 -12 -17 4 -4 9 7 17 15 17 17 0 8 -8 3 -21 -13z"/>
<path d="M2650 3486 c0 -2 8 -10 18 -17 15 -13 16 -12 3 4 -13 16 -21 21 -21
13z"/>
<path d="M2654 2171 c7 -11 46 -35 46 -28 0 3 -12 12 -26 22 -15 9 -23 12 -20
6z"/>
<path d="M2801 2154 c0 -11 3 -14 6 -6 3 7 2 16 -1 19 -3 4 -6 -2 -5 -13z"/>
<path d="M2408 1923 c6 -2 18 -2 25 0 6 3 1 5 -13 5 -14 0 -19 -2 -12 -5z"/>
<path d="M2358 1913 c6 -2 18 -2 25 0 6 3 1 5 -13 5 -14 0 -19 -2 -12 -5z"/>
<path d="M2318 1903 c7 -3 16 -2 19 1 4 3 -2 6 -13 5 -11 0 -14 -3 -6 -6z"/>
<path d="M3590 1235 c0 -5 5 -17 10 -25 5 -8 10 -10 10 -5 0 6 -5 17 -10 25
-5 8 -10 11 -10 5z"/>
<path d="M2802 1830 c0 -14 2 -19 5 -12 2 6 2 18 0 25 -3 6 -5 1 -5 -13z"/>
<path d="M2811 1784 c0 -11 3 -14 6 -6 3 7 2 16 -1 19 -3 4 -6 -2 -5 -13z"/>
<path d="M2850 1066 c0 -2 8 -10 18 -17 15 -13 16 -12 3 4 -13 16 -21 21 -21
13z"/>
<path d="M3240 935 c-13 -14 -19 -25 -14 -25 8 1 50 50 41 50 -2 0 -14 -11
-27 -25z"/>
<path d="M2120 937 c0 -2 6 -10 14 -16 11 -9 16 -9 22 1 4 7 4 10 -1 6 -4 -4
-14 -3 -22 3 -7 6 -13 9 -13 6z"/>
<path d="M1905 5093 c4 -16 8 -29 9 -31 2 -1 32 11 67 27 l64 30 -74 1 -73 0
7 -27z"/>
<path d="M2210 5104 c0 -9 -8 -23 -17 -30 -12 -8 9 -6 66 7 46 11 86 17 89 14
3 -3 -20 -88 -51 -189 -30 -101 -70 -244 -87 -318 -17 -73 -35 -141 -39 -152
-5 -15 -49 27 -240 233 -129 138 -236 251 -239 251 -5 0 12 -23 42 -58 13 -15
20 -34 18 -52 -6 -55 63 -153 232 -328 45 -46 84 -90 89 -98 10 -17 98 -19
129 -3 28 15 31 7 18 -41 -6 -23 -10 -44 -8 -46 5 -4 79 176 152 367 l56 146
-20 78 c-16 62 -19 95 -14 157 l7 78 -92 0 c-78 0 -91 -2 -91 -16z"/>
<path d="M2768 5108 c12 -6 22 -14 22 -18 0 -4 -69 -78 -152 -164 l-153 -157
77 -29 c43 -17 79 -30 81 -30 1 0 3 10 4 23 2 28 75 92 131 114 77 29 109 -4
182 -190 23 -59 45 -109 49 -111 4 -3 -40 125 -98 285 l-106 289 -30 -1 c-29
0 -29 -1 -7 -11z"/>
<path d="M3759 5103 c-13 -16 -12 -17 4 -4 16 13 21 21 13 21 -2 0 -10 -8 -17
-17z"/>
<path d="M4686 5111 c-4 -5 0 -12 6 -14 7 -3 5 -6 -6 -6 -41 -2 16 -40 133
-89 149 -63 215 -80 241 -64 11 7 30 12 42 13 16 1 12 4 -13 11 -34 9 -39 15
-65 86 -16 42 -30 69 -32 60 -2 -10 8 -42 21 -72 l25 -54 -86 40 c-48 21 -110
53 -138 69 -51 28 -117 39 -128 20z"/>
<path d="M1940 5060 c-8 -5 -12 -12 -9 -15 4 -3 12 1 19 10 14 17 11 19 -10 5z"/>
<path d="M46 4865 c5 -42 1 -40 -33 12 -11 17 -12 17 -12 -3 -1 -11 9 -29 20
-40 23 -20 49 -73 49 -99 0 -11 -10 -15 -35 -15 l-35 0 0 -114 c0 -106 2 -115
20 -121 52 -16 70 -88 29 -113 -12 -8 -19 -10 -17 -5 3 4 -3 16 -14 26 -17 16
-18 15 -18 -53 0 -76 4 -80 51 -53 28 17 29 21 30 93 1 41 4 109 8 150 6 69 8
75 28 74 28 -1 25 14 -23 137 -19 48 -34 95 -35 105 0 11 -4 28 -9 39 -7 14
-8 9 -4 -20z"/>
<path d="M460 4829 c-19 -4 -81 -18 -138 -30 l-103 -22 3 -46 3 -46 42 3 c22
2 50 -2 61 -9 18 -11 15 -18 -54 -117 -41 -57 -71 -108 -69 -113 3 -4 -6 -20
-20 -35 -30 -32 -31 -40 -6 -40 11 0 17 5 14 10 -4 5 1 7 11 3 10 -4 15 -3 11
3 -9 14 26 28 67 26 36 -1 36 -1 59 64 30 89 40 105 98 178 28 35 51 72 51 83
0 11 5 17 10 14 7 -4 8 8 4 37 -4 24 -7 43 -8 44 -1 0 -17 -3 -36 -7z"/>
<path d="M4766 4150 c4 -14 13 -38 20 -55 11 -24 13 -25 8 -5 -4 14 -13 39
-20 55 -11 24 -13 25 -8 5z"/>
<path d="M4580 4056 c0 -98 22 -293 30 -270 4 11 1 75 -6 144 -7 68 -11 126
-8 129 2 2 4 -4 4 -15 0 -11 18 -43 40 -73 22 -29 40 -58 41 -65 0 -6 2 -19 4
-28 2 -9 -6 -26 -16 -37 -40 -43 3 -19 73 41 112 94 103 82 86 120 -9 18 -18
40 -22 48 -3 8 -4 2 -1 -13 l6 -28 -116 59 -115 59 0 -71z"/>
<path d="M1452 4030 c0 -14 2 -19 5 -12 2 6 2 18 0 25 -3 6 -5 1 -5 -13z"/>
<path d="M5074 3957 c-22 -51 -46 -91 -52 -89 -21 4 -10 -62 11 -68 15 -4 11
-11 -25 -37 -24 -17 -88 -66 -144 -110 -55 -43 -142 -107 -193 -143 l-93 -65
34 -5 c18 -3 103 -4 189 -2 l156 3 32 120 c18 66 40 127 49 136 15 14 19 12
49 -23 l33 -39 0 208 c0 114 -1 207 -2 207 -2 0 -21 -42 -44 -93z"/>
<path d="M1895 3921 c-93 -48 -231 -116 -305 -151 l-135 -65 48 -3 c32 -2 92
9 182 34 75 20 138 34 142 31 3 -4 -3 -30 -15 -59 -37 -98 -34 -94 43 52 43
80 79 147 82 150 2 3 13 -6 23 -20 14 -18 20 -20 20 -9 0 8 14 28 30 44 17 16
37 42 45 57 7 16 13 27 12 26 -1 0 -78 -40 -172 -87z"/>
<path d="M1930 3706 c-47 -35 -98 -76 -115 -91 l-30 -26 30 6 c17 4 53 9 80
11 86 6 114 14 145 40 20 17 30 35 30 52 -1 27 -30 72 -47 72 -4 0 -46 -29
-93 -64z"/>
<path d="M4410 3547 c0 -7 43 -71 95 -141 138 -185 139 -166 -14 -166 -149 0
-135 12 -147 -125 -4 -44 -10 -86 -14 -93 -6 -13 -70 78 -160 230 -21 35 -38
54 -43 49 -13 -13 125 -250 184 -316 10 -11 31 -47 48 -80 17 -33 30 -54 31
-46 0 7 -14 38 -31 68 -17 30 -29 57 -26 59 3 3 38 -1 78 -9 69 -14 76 -14
125 4 62 24 100 72 129 167 18 61 18 62 -2 79 -27 25 -136 179 -161 229 -37
73 -92 127 -92 91z"/>
<path d="M5027 3085 c-43 -19 -86 -31 -95 -28 -12 5 -10 -1 7 -20 27 -30 32
-33 29 -15 -2 8 16 13 52 15 94 6 100 9 100 48 0 19 -3 35 -7 35 -5 0 -43 -16
-86 -35z"/>
<path d="M3675 3058 c-2 -7 -22 -78 -45 -158 -48 -166 -59 -185 -100 -167 -39
17 -150 116 -150 134 0 8 27 42 60 75 34 33 54 58 45 54 -63 -24 -185 -47
-222 -42 -24 3 -43 3 -43 -1 0 -3 18 -25 40 -49 22 -24 40 -53 40 -64 0 -25
-42 -87 -103 -153 -43 -46 -46 -47 -50 -25 -3 12 -4 -14 -3 -59 1 -97 4 -95
69 27 95 182 137 246 137 209 0 -8 52 -66 116 -129 64 -63 114 -110 111 -104
-9 15 43 223 88 353 19 58 35 106 35 108 0 9 -21 1 -25 -9z"/>
<path d="M3029 3043 c-13 -16 -12 -17 4 -4 16 13 21 21 13 21 -2 0 -10 -8 -17
-17z"/>
<path d="M5000 3027 c0 -19 39 -72 75 -102 51 -41 61 -34 14 11 -17 16 -39 44
-51 62 -16 26 -38 43 -38 29z"/>
<path d="M4980 3006 c0 -2 8 -10 18 -17 15 -13 16 -12 3 4 -13 16 -21 21 -21
13z"/>
<path d="M4160 2574 c-47 -53 -116 -130 -153 -172 -110 -124 -158 -189 -144
-195 12 -4 30 -49 45 -112 3 -11 6 -37 6 -57 1 -21 2 -38 3 -38 5 0 109 172
149 249 29 55 82 132 129 188 44 52 84 100 89 107 6 8 -1 27 -18 53 -16 24
-24 47 -20 56 3 10 5 17 3 17 -2 0 -42 -43 -89 -96z"/>
<path d="M3655 2610 c-9 -16 -13 -30 -11 -30 3 0 12 14 21 30 9 17 13 30 11
30 -3 0 -12 -13 -21 -30z"/>
<path d="M3800 2600 c20 -13 53 -13 45 0 -3 6 -18 10 -33 10 -21 0 -24 -2 -12
-10z"/>
<path d="M3670 2540 c-14 -4 -20 -9 -15 -10 6 -1 -1 -6 -14 -11 -17 -6 -28 -6
-39 3 -11 9 -74 14 -221 16 l-206 4 30 -30 c17 -17 52 -41 78 -55 l48 -25
-105 -7 c-59 -4 -106 -10 -106 -13 0 -4 17 -23 37 -44 34 -35 35 -38 14 -38
-12 0 -20 -3 -17 -8 2 -4 62 -2 133 5 70 6 156 12 191 12 54 1 62 4 62 20 0
18 151 161 170 161 6 0 10 7 10 15 0 16 -11 17 -50 5z"/>
<path d="M4540 2510 c-8 -5 -10 -10 -5 -10 6 0 17 5 25 10 8 5 11 10 5 10 -5
0 -17 -5 -25 -10z"/>
<path d="M3580 2334 c0 -9 141 -142 189 -178 l26 -20 -20 23 c-34 40 -195 184
-195 175z"/>
<path d="M4895 2029 c-19 -20 -18 -20 10 -44 29 -23 30 -23 33 -3 5 26 -6 68
-17 68 -4 0 -16 -9 -26 -21z"/>
<path d="M772 1990 c0 -19 2 -27 5 -17 2 9 2 25 0 35 -3 9 -5 1 -5 -18z"/>
<path d="M0 1847 c0 -28 0 -28 113 -42 53 -7 54 -10 32 -81 -17 -56 -19 -78
-6 -70 5 3 15 35 22 71 l13 65 23 -22 c20 -18 38 -23 113 -26 50 -3 90 -2 90
2 0 4 -7 23 -15 43 -8 19 -15 44 -15 54 0 17 -8 19 -63 19 -35 0 -119 3 -185
7 l-122 6 0 -26z"/>
<path d="M3412 1770 c0 -14 2 -19 5 -12 2 6 2 18 0 25 -3 6 -5 1 -5 -13z"/>
<path d="M3421 1694 c0 -11 3 -14 6 -6 3 7 2 16 -1 19 -3 4 -6 -2 -5 -13z"/>
<path d="M3278 1693 c6 -2 18 -2 25 0 6 3 1 5 -13 5 -14 0 -19 -2 -12 -5z"/>
<path d="M3112 1645 c6 -14 13 -24 14 -22 6 6 -9 47 -17 47 -5 0 -3 -11 3 -25z"/>
<path d="M52 1545 c0 -11 3 -29 8 -40 11 -25 11 1 0 35 -6 20 -8 21 -8 5z"/>
<path d="M410 1490 c-9 -6 -10 -10 -3 -10 6 0 15 5 18 10 8 12 4 12 -15 0z"/>
<path d="M4160 1464 c-58 -46 -62 -51 -22 -28 29 17 83 65 71 63 -2 0 -24 -16
-49 -35z"/>
<path d="M398 1293 c7 -3 16 -2 19 1 4 3 -2 6 -13 5 -11 0 -14 -3 -6 -6z"/>
<path d="M655 1018 c-12 -33 -75 -309 -75 -328 0 -14 5 -20 13 -17 6 2 46 19
88 36 70 30 75 34 71 59 -2 15 3 55 12 87 8 33 18 86 22 118 l7 57 -67 0 c-44
0 -68 -4 -71 -12z"/>
<path d="M5070 877 c-25 -23 -69 -63 -99 -89 -62 -56 -63 -65 -1 -13 23 19 46
33 50 30 4 -3 11 -32 15 -65 7 -61 18 -80 57 -101 20 -11 21 -9 14 32 -3 24
-9 73 -13 109 -6 59 -5 64 10 52 15 -13 16 -9 14 37 -1 28 -2 51 -2 51 0 0
-20 -19 -45 -43z"/>
<path d="M255 740 c-3 -6 1 -7 9 -4 18 7 21 14 7 14 -6 0 -13 -4 -16 -10z"/>
<path d="M0 480 c0 -44 1 -80 3 -80 1 0 26 9 55 20 29 11 61 20 72 20 41 0 28
21 -44 70 -41 27 -78 50 -81 50 -3 0 -5 -36 -5 -80z"/>
<path d="M629 453 c-4 -10 -217 -187 -265 -221 -18 -12 -35 -34 -39 -49 -6
-25 -8 -26 -14 -9 -6 16 -18 1 -59 -75 l-51 -94 70 -3 c47 -2 76 1 87 10 12
10 14 10 8 1 -5 -10 11 -13 68 -13 88 0 81 -7 143 153 19 51 41 97 48 103 10
7 14 38 16 103 1 83 -3 117 -12 94z"/>
<path d="M5100 420 c0 -5 5 -10 10 -10 6 0 10 5 10 10 0 6 -4 10 -10 10 -5 0
-10 -4 -10 -10z"/>
<path d="M816 324 c-4 -19 -9 -43 -12 -52 -4 -11 -1 -10 7 3 15 24 30 35 41
29 4 -3 2 9 -3 26 -14 40 -25 38 -33 -6z"/>
<path d="M2624 289 c-7 -8 -46 -75 -88 -149 l-77 -135 58 -3 c56 -3 59 -2 89
34 23 27 36 35 49 30 16 -6 17 -1 12 61 -4 38 -12 92 -19 122 -10 43 -15 51
-24 40z"/>
<path d="M30 192 c-28 -34 -30 -43 -30 -114 l0 -78 29 0 29 0 -20 65 c-11 36
-18 72 -15 80 3 8 34 23 69 34 35 10 54 20 43 20 -11 1 -32 8 -47 15 -27 14
-29 13 -58 -22z"/>
<path d="M2270 175 c0 -14 156 -182 163 -175 3 3 -33 45 -79 95 -46 50 -84 85
-84 80z"/>
<path d="M2920 21 c0 -9 30 -24 36 -18 2 1 -6 8 -16 15 -11 7 -20 8 -20 3z"/>
</g>
</svg>